; NON-PLATED HOLES START AT T1
; THROUGH (PLATED) HOLES START AT T100
M48
INCH
T1C0.086614
T100C0.030739
T101C0.048889
T102C0.015748
T103C0.038000
T104C0.037795
%
T1
X001007Y003978
X001007Y001174
X028613Y003978
X001007Y023214
X028613Y023214
X012680Y023214
X028613Y001175
T100
X010320Y021484
X009613Y022191
X008906Y022898
T101
X005423Y010059
X005423Y011125
X005423Y008992
X005423Y012192
T102
X013613Y012584
X006613Y012978
X006613Y010978
X015613Y013978
X006613Y009978
X011613Y009978
T103
X003427Y001901
X013434Y003901
X018613Y019588
X018613Y008529
X022613Y008529
X017613Y008529
X005298Y015584
X022613Y019588
X017613Y019588
X023613Y019588
X018434Y003901
X002316Y017586
X026416Y001899
X023613Y008529
X010613Y008529
X014613Y019588
X021416Y001899
X008427Y001901
X017611Y022133
X014613Y008529
X010613Y019588
X016036Y022133
X023427Y001901
X021613Y008529
X021613Y019588
X002309Y015586
X006416Y001899
X011423Y003916
X016423Y003916
X003434Y003901
X013427Y001901
X024613Y008529
X020613Y019588
X019613Y008529
X011416Y001899
X020613Y008529
X024613Y019588
X019613Y019588
X026423Y003916
X021423Y003916
X016613Y019588
X011613Y019588
X016613Y008529
X008434Y003901
X011613Y008529
X018427Y001901
X023434Y003901
X013613Y008529
X016416Y001899
X013613Y019588
X015613Y019588
X005305Y017601
X012613Y019588
X015613Y008529
X006423Y003916
X012613Y008529
T104
X011397Y006905
X016397Y006905
X006397Y006905
X023431Y000878
X002313Y014563
X003431Y000878
X008431Y000878
X018431Y000878
X013431Y000878
X005279Y020590
X026397Y006905
X021397Y006905
T00
M30
